<svg width="527" height="45" viewBox="0 0 527 45" fill="none" xmlns="http://www.w3.org/2000/svg">
<path d="M283.403 1.43181e-05H294.49L305.39 29.3455H305.515L316.602 1.43181e-05H327.004L308.816 44.7772H301.03L283.403 1.43181e-05ZM341.454 1.43181e-05H351.171V44.7772H341.454V1.43181e-05ZM369.109 1.43181e-05H399.069V9.10724H378.826V17.4555H397.948V26.5627H378.826V35.67H400.19V44.7772H369.109V1.43181e-05ZM437.624 1.43181e-05H452.199C455.589 0.00608523 458.964 0.430837 462.252 1.26491C465.247 1.9558 468.076 3.24582 470.574 5.05958C472.975 6.90046 474.906 9.29917 476.205 12.0544C477.708 15.3258 478.446 18.9061 478.36 22.5151C478.423 25.8276 477.728 29.1098 476.329 32.103C475.032 34.7946 473.174 37.1682 470.885 39.0599C468.531 40.9658 465.849 42.4112 462.975 43.3226C459.894 44.3149 456.677 44.8059 453.445 44.7772H437.612L437.624 1.43181e-05ZM447.353 35.67H452.336C454.432 35.6855 456.523 35.452 458.565 34.9743C460.364 34.5556 462.06 33.7679 463.548 32.6595C464.986 31.5546 466.129 30.1023 466.874 28.4348C467.748 26.4114 468.173 24.2178 468.12 22.0091C468.157 20.03 467.73 18.0704 466.874 16.2918C466.107 14.7128 464.99 13.3359 463.61 12.2695C462.158 11.1791 460.519 10.3727 458.777 9.89147C456.882 9.36394 454.924 9.10012 452.959 9.10724H447.229L447.353 35.67ZM492.362 1.43181e-05H508.805C510.735 0.00302282 512.662 0.138252 514.573 0.40478C516.384 0.649087 518.141 1.20518 519.768 2.04914C521.289 2.84934 522.577 4.03984 523.505 5.50229C524.539 7.27846 525.037 9.3234 524.937 11.384C525.03 13.6797 524.29 15.93 522.857 17.7085C521.394 19.4122 519.478 20.6508 517.339 21.2755V21.402C518.719 21.5956 520.058 22.0232 521.3 22.6669C522.451 23.2494 523.485 24.0427 524.352 25.0069C525.213 25.9697 525.878 27.0961 526.308 28.3209C526.772 29.618 527.004 30.9887 526.993 32.3686C527.068 34.447 526.548 36.5029 525.498 38.2883C524.517 39.8395 523.195 41.1384 521.636 42.083C519.994 43.0838 518.195 43.7898 516.317 44.17C514.38 44.5861 512.405 44.798 510.425 44.8025H492.362V1.43181e-05ZM502.029 17.8982H509.067C509.813 17.8968 510.557 17.8119 511.284 17.6453C511.979 17.492 512.642 17.2135 513.24 16.8231C513.827 16.4445 514.311 15.9226 514.648 15.3052C515.013 14.6048 515.193 13.8205 515.171 13.0284C515.206 12.219 515.002 11.4175 514.585 10.7263C514.203 10.1254 513.675 9.6335 513.053 9.29697C512.389 8.94167 511.675 8.69413 510.935 8.56333C510.175 8.42451 509.404 8.35257 508.631 8.3483H502.029V17.8982ZM502.029 36.4289H510.749C511.515 36.4247 512.279 36.3399 513.028 36.1759C513.771 36.0181 514.477 35.7175 515.109 35.2905C515.735 34.8669 516.259 34.3047 516.641 33.6461C517.067 32.8757 517.27 31.9988 517.226 31.1164C517.263 30.2081 516.99 29.3148 516.454 28.5866C515.927 27.9439 515.25 27.4441 514.486 27.1319C513.689 26.7889 512.852 26.5549 511.994 26.4363C511.148 26.3143 510.295 26.2509 509.441 26.2465H502.029V36.4289ZM254.129 44.6887H255.374C261.209 44.6887 266.805 42.3352 270.93 38.146C275.056 33.9568 277.374 28.2751 277.374 22.3507V22.3507C277.374 16.4251 275.056 10.742 270.931 6.55084C266.806 2.35964 261.21 0.00336778 255.374 1.43181e-05H254.241C251.348 -0.00331025 248.483 0.572353 245.809 1.69409C243.136 2.81583 240.706 4.46164 238.66 6.53742C236.613 8.61319 234.989 11.0782 233.882 13.7916C232.774 16.5049 232.204 19.4134 232.204 22.3507V22.3507C232.204 28.2751 234.522 33.9568 238.647 38.146C242.773 42.3352 248.369 44.6887 254.203 44.6887H254.129ZM12.5819 8.72777H0V1.43181e-05H34.8804V8.72777H22.2985V44.7772H12.5819V8.72777ZM48.5834 1.43181e-05H58.3001V16.6966H77.1106V1.43181e-05H86.8273V44.7772H77.1106V25.4243H58.2378V44.7772H48.5834V1.43181e-05ZM99.9074 1.43181e-05H129.805V9.10724H109.624V17.4555H128.746V26.5627H109.624V35.67H130.988V44.7772H99.8451L99.9074 1.43181e-05ZM168.422 1.43181e-05H183.122L193.275 29.219H193.399L203.614 1.43181e-05H218.252V44.7772H208.535V10.4354H208.41L196.825 44.7772H189.413L178.201 10.4354H178.139V44.7772H168.422V1.43181e-05Z" fill="white"/>
</svg>
